name rise32.9588peak41.5061fall63.4684.mot
datacolumns 19
datarows 23
range 18.81660000000000 18.85326100000000
endheader
time	ground_force1_vx	ground_force1_vy	ground_force1_vz	ground_force1_px	ground_force1_py	ground_force1_pz	ground_force2_vx	ground_force2_vy	ground_force2_vz	ground_force2_px	ground_force2_py	ground_force2_pz	ground_torque1_x	ground_torque1_y	ground_torque1_z	ground_torque2_x	ground_torque2_y	ground_torque2_z	
18.81660000000000	-46.07991100000000	809.64560600000004	44.47031500000000	0.08030200000000	0.00000000000000	0.09235900000000	-5.49552500000000	20.48342200000000	5.12682300000000	0.00000000000000	0.00000000000000	0.00000000000000	0.00000000000000	15.05300100000000	0.00000000000000	0.00000000000000	1.53395000000000	0.00000000000000	
18.81826300000000	-46.19923100000000	806.75741300000004	44.22649200000000	0.07979200000000	0.00000000000000	0.09235200000000	-6.67177800000000	26.00019200000000	6.34317300000000	0.29436700000000	0.00000000000000	-0.06064400000000	0.00000000000000	14.96096400000000	0.00000000000000	0.00000000000000	3.37121000000000	0.00000000000000	
18.81992800000000	-46.32771100000000	803.75491099999999	43.96477300000000	0.07929400000000	0.00000000000000	0.09234300000000	-7.82627100000000	31.83851100000000	7.57998100000000	0.30050000000000	0.00000000000000	-0.06088400000000	0.00000000000000	14.87065900000000	0.00000000000000	0.00000000000000	4.09442700000000	0.00000000000000	
18.82159200000000	-46.46647600000000	800.63904400000001	43.68528400000000	0.07880900000000	0.00000000000000	0.09233100000000	-8.91697600000000	37.87655300000000	8.80089100000000	0.30608500000000	0.00000000000000	-0.06112500000000	0.00000000000000	14.78229100000000	0.00000000000000	0.00000000000000	4.82578000000000	0.00000000000000	
18.82326600000000	-46.61661100000000	797.41072799999995	43.38817400000000	0.07833500000000	0.00000000000000	0.09231600000000	-9.90574700000000	43.99679300000000	9.97196000000000	0.31118300000000	0.00000000000000	-0.06136800000000	0.00000000000000	14.69605700000000	0.00000000000000	0.00000000000000	5.54546900000000	0.00000000000000	
18.82492900000000	-46.77914900000000	794.07084199999997	43.07361800000000	0.07787200000000	0.00000000000000	0.09229800000000	-10.76082300000000	50.09485100000000	11.06395600000000	0.31584400000000	0.00000000000000	-0.06161400000000	0.00000000000000	14.61214000000000	0.00000000000000	0.00000000000000	6.23572900000000	0.00000000000000	
18.82659700000000	-46.95507000000000	790.62022100000002	42.74181300000000	0.07741800000000	0.00000000000000	0.09227800000000	-11.45854000000000	56.08621000000000	12.05400400000000	0.32011300000000	0.00000000000000	-0.06186400000000	0.00000000000000	14.53071000000000	0.00000000000000	0.00000000000000	6.88193300000000	0.00000000000000	
18.82825800000000	-47.14529200000000	787.05964900000004	42.39297700000000	0.07697400000000	0.00000000000000	0.09225400000000	-11.98414200000000	61.91035400000000	12.92649500000000	0.32402600000000	0.00000000000000	-0.06211600000000	0.00000000000000	14.45192600000000	0.00000000000000	0.00000000000000	7.47328800000000	0.00000000000000	
18.82992700000000	-47.35066300000000	783.38985100000002	42.02734700000000	0.07653800000000	0.00000000000000	0.09222800000000	-12.33175300000000	67.53229800000000	13.67324800000000	0.32761600000000	0.00000000000000	-0.06237300000000	0.00000000000000	14.37593200000000	0.00000000000000	0.00000000000000	8.00311200000000	0.00000000000000	
18.83159300000000	-47.57195800000000	779.61148700000001	41.64518100000000	0.07611000000000	0.00000000000000	0.09219900000000	-12.50361500000000	72.94175199999999	14.29304600000000	0.33091100000000	0.00000000000000	-0.06263400000000	0.00000000000000	14.30285600000000	0.00000000000000	0.00000000000000	8.46871800000000	0.00000000000000	
18.83326500000000	-47.80987200000000	775.72514600000000	41.24675200000000	0.07568800000000	0.00000000000000	0.09216700000000	-12.50880200000000	78.15041100000001	14.79067600000000	0.33393500000000	0.00000000000000	-0.06289900000000	0.00000000000000	14.23281400000000	0.00000000000000	0.00000000000000	8.87098700000000	0.00000000000000	
18.83492900000000	-48.06501100000000	771.73134300000004	40.83234900000000	0.07527100000000	0.00000000000000	0.09213300000000	-12.36158800000000	83.18788100000000	15.17563800000000	0.33671000000000	0.00000000000000	-0.06316800000000	0.00000000000000	14.16590400000000	0.00000000000000	0.00000000000000	9.21371700000000	0.00000000000000	
18.83659800000000	-48.33789300000000	767.63051599999994	40.40227700000000	0.07485900000000	0.00000000000000	0.09209500000000	-12.07966600000000	88.09685200000000	15.46069600000000	0.33925500000000	0.00000000000000	-0.06344000000000	0.00000000000000	14.10220700000000	0.00000000000000	0.00000000000000	9.50284000000000	0.00000000000000	
18.83826200000000	-48.62893600000000	763.42301699999996	39.95685300000000	0.07445000000000	0.00000000000000	0.09205400000000	-11.68240000000000	92.92802100000000	15.66040600000000	0.34158800000000	0.00000000000000	-0.06371700000000	0.00000000000000	14.04178800000000	0.00000000000000	0.00000000000000	9.74559700000000	0.00000000000000	
18.83993100000000	-48.93845600000000	759.10911599999997	39.49640600000000	0.07404400000000	0.00000000000000	0.09201100000000	-11.18923900000000	97.73523200000000	15.78975800000000	0.34372400000000	0.00000000000000	-0.06399800000000	0.00000000000000	13.98469600000000	0.00000000000000	0.00000000000000	9.94975200000000	0.00000000000000	
18.84159700000000	-49.26666200000000	754.68899799999997	39.02127600000000	0.07363900000000	0.00000000000000	0.09196500000000	-10.61839200000000	102.57118699999999	15.86301300000000	0.34567600000000	0.00000000000000	-0.06428200000000	0.00000000000000	13.93096000000000	0.00000000000000	0.00000000000000	10.12289100000000	0.00000000000000	
18.84326500000000	-49.61365100000000	750.16275800000005	38.53181500000000	0.07323400000000	0.00000000000000	0.09191600000000	-9.98582700000000	107.48395400000000	15.89278800000000	0.34745800000000	0.00000000000000	-0.06456900000000	0.00000000000000	13.88059200000000	0.00000000000000	0.00000000000000	10.27186800000000	0.00000000000000	
18.84493600000000	-49.97940400000000	745.53040599999997	38.02838100000000	0.07282900000000	0.00000000000000	0.09186400000000	-9.30460900000000	112.51441800000001	15.88943800000000	0.34908200000000	0.00000000000000	-0.06485900000000	0.00000000000000	13.83358400000000	0.00000000000000	0.00000000000000	10.40239900000000	0.00000000000000	
18.84659700000000	-50.36378300000000	740.79186600000003	37.51134200000000	0.07242300000000	0.00000000000000	0.09180900000000	-8.58457300000000	117.69468200000000	15.86069800000000	0.35055600000000	0.00000000000000	-0.06515300000000	0.00000000000000	13.78991100000000	0.00000000000000	0.00000000000000	10.51881500000000	0.00000000000000	
18.84826500000000	-50.76652600000000	735.94697499999995	36.98107300000000	0.07201300000000	0.00000000000000	0.09175100000000	-7.83229900000000	123.04738999999999	15.81159700000000	0.35189300000000	0.00000000000000	-0.06544800000000	0.00000000000000	13.74952800000000	0.00000000000000	0.00000000000000	10.62397600000000	0.00000000000000	
18.84993000000000	-51.18724800000000	730.99549200000001	36.43795600000000	0.07160000000000	0.00000000000000	0.09169100000000	-7.05132600000000	128.58584400000001	15.74458300000000	0.35309900000000	0.00000000000000	-0.06574600000000	0.00000000000000	13.71237100000000	0.00000000000000	0.00000000000000	10.71930200000000	0.00000000000000	
18.85160900000000	-51.62543400000000	725.93709100000001	35.88237900000000	0.07118300000000	0.00000000000000	0.09162800000000	-6.24255500000000	134.31475499999999	15.65981500000000	0.35418500000000	0.00000000000000	-0.06604600000000	0.00000000000000	13.67835600000000	0.00000000000000	0.00000000000000	10.80492200000000	0.00000000000000	
18.85326100000000	-52.08044200000000	720.77137600000003	35.31473900000000	0.07075900000000	0.00000000000000	0.09156300000000	-5.40477800000000	140.23147499999999	15.55557600000000	0.35515700000000	0.00000000000000	-0.06634700000000	0.00000000000000	13.64738200000000	0.00000000000000	0.00000000000000	10.87988500000000	0.00000000000000	
